<?xml version="1.0" standalone="no"?>
<!DOCTYPE svg PUBLIC "-//W3C//DTD SVG 20010904//EN"
 "http://www.w3.org/TR/2001/REC-SVG-20010904/DTD/svg10.dtd">
<svg version="1.0" xmlns="http://www.w3.org/2000/svg"
 width="32.000000pt" height="32.000000pt" viewBox="0 0 512.000000 512.000000"
 preserveAspectRatio="xMidYMid meet">

<g transform="translate(0.000000,512.000000) scale(0.100000,-0.100000)"
fill="currentColor" stroke="none">
<path d="M412 5100 c-99 -26 -174 -71 -252 -149 -77 -79 -114 -142 -140 -247
-20 -75 -20 -115 -20 -1603 0 -1688 -3 -1600 65 -1730 65 -124 189 -228 324
-273 65 -22 77 -22 751 -26 l686 -3 213 -427 c117 -235 233 -454 256 -488 144
-202 386 -202 530 0 23 34 139 253 256 488 l213 427 686 3 c762 4 725 1 859
75 129 71 236 216 266 360 12 57 15 308 15 1594 0 1490 0 1528 -20 1603 -26
103 -69 177 -149 256 -78 77 -142 113 -247 140 -76 20 -117 20 -2148 19 -2010
0 -2073 -1 -2144 -19z m4241 -296 c28 -10 65 -34 91 -60 82 -82 77 50 74
-1664 l-3 -1525 -22 -41 c-12 -22 -39 -56 -59 -74 -78 -68 -32 -64 -849 -70
-689 -5 -743 -6 -768 -23 -21 -13 -88 -138 -271 -505 -134 -268 -253 -498
-265 -512 l-21 -25 -21 25 c-12 14 -131 244 -265 512 -183 367 -250 492 -271
505 -25 17 -79 18 -768 23 -685 5 -743 6 -780 23 -50 23 -100 70 -128 122
l-22 40 -3 1525 c-3 1714 -8 1584 73 1665 79 80 -112 73 2181 74 1856 1 2055
-1 2097 -15z"/>
<path d="M2490 4474 c-47 -9 -145 -47 -184 -72 -98 -62 -182 -183 -206 -296
-7 -36 -10 -193 -8 -478 3 -417 3 -424 27 -481 51 -129 170 -241 298 -283 79
-25 208 -25 288 1 126 41 245 153 296 282 24 57 24 64 27 481 2 285 -1 442 -8
478 -33 158 -156 293 -316 348 -50 17 -169 28 -214 20z m135 -313 c46 -21 79
-54 94 -94 17 -45 15 -779 -3 -820 -19 -46 -77 -94 -124 -102 -79 -13 -164 34
-191 108 -15 39 -15 775 0 814 21 57 100 113 159 113 14 0 43 -9 65 -19z"/>
<path d="M2453 2486 c-124 -30 -248 -124 -305 -232 -96 -178 -70 -392 64 -539
95 -104 209 -155 348 -155 307 0 532 289 455 585 -64 246 -318 400 -562 341z
m164 -297 c95 -35 139 -149 93 -239 -31 -61 -73 -85 -150 -85 -77 0 -119 24
-150 85 -69 136 66 292 207 239z"/>
</g>
</svg>
