<svg width="8" height="12" viewBox="0 0 8 12" fill="none" xmlns="http://www.w3.org/2000/svg">
<path d="M0.106017 11.5647C0.254107 11.8306 0.499514 11.9757 0.833775 11.9959C1.04533 12.008 1.14265 11.9959 1.28651 11.9274C1.41344 11.8709 2.30198 11.0488 4.28639 9.15469C6.55429 6.98652 7.11703 6.43038 7.15934 6.30545C7.23973 6.06364 7.19742 5.71303 7.06202 5.52765C7.00279 5.44302 5.69959 4.18564 4.16792 2.73079C1.92964 0.602928 1.34997 0.0749912 1.21881 0.0346909C1.12995 0.00648022 0.943784 -0.00560951 0.808388 0.00245094C0.207565 0.0427513 -0.164776 0.647258 0.0721679 1.19534C0.118711 1.30013 0.88878 2.06181 2.58124 3.66979L5.02261 5.99916L2.58124 8.3245C0.88878 9.93652 0.118711 10.6982 0.0721679 10.803C-0.0251484 11.0287 -0.00822401 11.3511 0.106017 11.5647Z" fill="white"/>
</svg>
